<?xml version="1.0" encoding="UTF-8"?>
<svg xmlns="http://www.w3.org/2000/svg" xmlns:xlink="http://www.w3.org/1999/xlink" width="504pt" height="504pt" viewBox="0 0 504 504" version="1.1">
<g id="surface46">
<rect x="0" y="0" width="504" height="504" style="fill:rgb(100%,100%,100%);fill-opacity:1;stroke:none;"/>
<path style=" stroke:none;fill-rule:nonzero;fill:rgb(65.098039%,80.784314%,89.019608%);fill-opacity:1;" d="M 60.898438 155.101563 L 87.898438 155.101563 L 87.898438 128.101563 L 60.898438 128.101563 Z M 60.898438 155.101563 "/>
<path style=" stroke:none;fill-rule:nonzero;fill:rgb(12.156863%,47.058824%,70.588235%);fill-opacity:1;" d="M 95.808594 155.101563 L 122.808594 155.101563 L 122.808594 128.101563 L 95.808594 128.101563 Z M 95.808594 155.101563 "/>
<path style=" stroke:none;fill-rule:nonzero;fill:rgb(69.803922%,87.45098%,54.117647%);fill-opacity:1;" d="M 130.71875 155.101563 L 157.71875 155.101563 L 157.71875 128.101563 L 130.71875 128.101563 Z M 130.71875 155.101563 "/>
<path style=" stroke:none;fill-rule:nonzero;fill:rgb(20%,62.745098%,17.254902%);fill-opacity:1;" d="M 165.628906 155.101563 L 192.628906 155.101563 L 192.628906 128.101563 L 165.628906 128.101563 Z M 165.628906 155.101563 "/>
<path style=" stroke:none;fill-rule:nonzero;fill:rgb(79.215686%,69.803922%,83.921569%);fill-opacity:1;" d="M 200.535156 155.101563 L 227.535156 155.101563 L 227.535156 128.101563 L 200.535156 128.101563 Z M 200.535156 155.101563 "/>
<path style=" stroke:none;fill-rule:nonzero;fill:rgb(41.568627%,23.921569%,60.392157%);fill-opacity:1;" d="M 235.445313 155.101563 L 262.445313 155.101563 L 262.445313 128.101563 L 235.445313 128.101563 Z M 235.445313 155.101563 "/>
<path style=" stroke:none;fill-rule:nonzero;fill:rgb(99.215686%,74.901961%,43.529412%);fill-opacity:1;" d="M 270.355469 155.101563 L 297.355469 155.101563 L 297.355469 128.101563 L 270.355469 128.101563 Z M 270.355469 155.101563 "/>
<path style=" stroke:none;fill-rule:nonzero;fill:rgb(100%,49.803922%,0%);fill-opacity:1;" d="M 305.261719 155.101563 L 332.261719 155.101563 L 332.261719 128.101563 L 305.261719 128.101563 Z M 305.261719 155.101563 "/>
<path style=" stroke:none;fill-rule:nonzero;fill:rgb(98.431373%,60.392157%,60%);fill-opacity:1;" d="M 340.171875 155.101563 L 367.171875 155.101563 L 367.171875 128.101563 L 340.171875 128.101563 Z M 340.171875 155.101563 "/>
<path style=" stroke:none;fill-rule:nonzero;fill:rgb(89.019608%,10.196078%,10.980392%);fill-opacity:1;" d="M 375.082031 155.101563 L 402.082031 155.101563 L 402.082031 128.101563 L 375.082031 128.101563 Z M 375.082031 155.101563 "/>
<path style=" stroke:none;fill-rule:nonzero;fill:rgb(100%,100%,60%);fill-opacity:1;" d="M 409.992188 155.101563 L 436.992188 155.101563 L 436.992188 128.101563 L 409.992188 128.101563 Z M 409.992188 155.101563 "/>
<path style=" stroke:none;fill-rule:nonzero;fill:rgb(69.411765%,34.901961%,15.686275%);fill-opacity:1;" d="M 444.898438 155.101563 L 471.898438 155.101563 L 471.898438 128.101563 L 444.898438 128.101563 Z M 444.898438 155.101563 "/>
<path style=" stroke:none;fill-rule:nonzero;fill:rgb(65.098039%,80.784314%,89.019608%);fill-opacity:1;" d="M 60.898438 292.699219 L 87.898438 292.699219 L 87.898438 265.699219 L 60.898438 265.699219 Z M 60.898438 292.699219 "/>
<path style=" stroke:none;fill-rule:nonzero;fill:rgb(12.156863%,47.058824%,70.588235%);fill-opacity:1;" d="M 95.808594 292.699219 L 122.808594 292.699219 L 122.808594 265.699219 L 95.808594 265.699219 Z M 95.808594 292.699219 "/>
<path style=" stroke:none;fill-rule:nonzero;fill:rgb(69.803922%,87.45098%,54.117647%);fill-opacity:1;" d="M 130.71875 292.699219 L 157.71875 292.699219 L 157.71875 265.699219 L 130.71875 265.699219 Z M 130.71875 292.699219 "/>
<path style=" stroke:none;fill-rule:nonzero;fill:rgb(20%,62.745098%,17.254902%);fill-opacity:1;" d="M 165.628906 292.699219 L 192.628906 292.699219 L 192.628906 265.699219 L 165.628906 265.699219 Z M 165.628906 292.699219 "/>
<path style=" stroke:none;fill-rule:nonzero;fill:rgb(98.431373%,60.392157%,60%);fill-opacity:1;" d="M 200.535156 292.699219 L 227.535156 292.699219 L 227.535156 265.699219 L 200.535156 265.699219 Z M 200.535156 292.699219 "/>
<path style=" stroke:none;fill-rule:nonzero;fill:rgb(89.019608%,10.196078%,10.980392%);fill-opacity:1;" d="M 235.445313 292.699219 L 262.445313 292.699219 L 262.445313 265.699219 L 235.445313 265.699219 Z M 235.445313 292.699219 "/>
<path style=" stroke:none;fill-rule:nonzero;fill:rgb(99.215686%,74.901961%,43.529412%);fill-opacity:1;" d="M 270.355469 292.699219 L 297.355469 292.699219 L 297.355469 265.699219 L 270.355469 265.699219 Z M 270.355469 292.699219 "/>
<path style=" stroke:none;fill-rule:nonzero;fill:rgb(100%,49.803922%,0%);fill-opacity:1;" d="M 305.261719 292.699219 L 332.261719 292.699219 L 332.261719 265.699219 L 305.261719 265.699219 Z M 305.261719 292.699219 "/>
<path style=" stroke:none;fill-rule:nonzero;fill:rgb(79.215686%,69.803922%,83.921569%);fill-opacity:1;" d="M 340.171875 292.699219 L 367.171875 292.699219 L 367.171875 265.699219 L 340.171875 265.699219 Z M 340.171875 292.699219 "/>
<path style=" stroke:none;fill-rule:nonzero;fill:rgb(41.568627%,23.921569%,60.392157%);fill-opacity:1;" d="M 375.082031 292.699219 L 402.082031 292.699219 L 402.082031 265.699219 L 375.082031 265.699219 Z M 375.082031 292.699219 "/>
<path style=" stroke:none;fill-rule:nonzero;fill:rgb(100%,100%,60%);fill-opacity:1;" d="M 409.992188 292.699219 L 436.992188 292.699219 L 436.992188 265.699219 L 409.992188 265.699219 Z M 409.992188 292.699219 "/>
<path style=" stroke:none;fill-rule:nonzero;fill:rgb(69.411765%,34.901961%,15.686275%);fill-opacity:1;" d="M 444.898438 292.699219 L 471.898438 292.699219 L 471.898438 265.699219 L 444.898438 265.699219 Z M 444.898438 292.699219 "/>
</g>
</svg>
